<?xml version="1.0" standalone="no"?>
<!DOCTYPE svg PUBLIC "-//W3C//DTD SVG 20010904//EN"
 "http://www.w3.org/TR/2001/REC-SVG-20010904/DTD/svg10.dtd">
<svg version="1.0" xmlns="http://www.w3.org/2000/svg"
 width="984.000000pt" height="984.000000pt" viewBox="0 0 984.000000 984.000000"
 preserveAspectRatio="xMidYMid meet">
<metadata>
Created by potrace 1.14, written by Peter Selinger 2001-2017
</metadata>
<g transform="translate(0.000000,984.000000) scale(0.100000,-0.100000)"
fill="#000000" stroke="none">
<path d="M1798 8775 c-1 -1 -43 -6 -93 -9 -105 -7 -162 -13 -225 -21 -25 -4
-58 -8 -75 -10 -16 -2 -43 -6 -60 -8 -66 -11 -120 -21 -125 -22 -3 -1 -18 -5
-35 -10 -78 -21 -134 -69 -170 -146 -25 -55 -22 93 -30 -1374 -2 -341 -7
-1128 -10 -1750 -4 -621 -8 -1416 -9 -1766 -2 -350 -6 -641 -10 -647 -3 -6 -3
-13 2 -16 9 -5 7 -89 -2 -105 -4 -6 -3 -11 1 -11 5 0 8 -12 7 -27 -3 -75 59
-169 139 -207 61 -30 90 -32 257 -21 321 21 901 1 1170 -42 19 -3 49 -6 65 -8
42 -4 112 -15 165 -26 25 -5 65 -11 89 -14 24 -3 48 -8 53 -11 5 -3 24 -8 41
-11 18 -2 77 -16 132 -30 55 -14 107 -26 115 -28 29 -6 247 -83 268 -94 12 -6
22 -9 22 -5 0 3 11 -1 25 -10 14 -9 25 -14 25 -11 0 3 15 -2 33 -12 17 -9 34
-18 37 -18 40 -10 60 -19 60 -26 0 -5 6 -9 14 -9 34 0 536 -274 566 -309 3 -3
12 -10 21 -16 55 -34 119 -81 119 -87 0 -5 5 -8 11 -8 13 0 118 -82 118 -93 1
-4 -12 -1 -29 8 -16 8 -33 15 -37 15 -8 0 -95 24 -143 40 -27 10 -161 46 -201
54 -13 3 -63 14 -110 25 -47 10 -94 21 -105 25 -10 3 -35 8 -54 10 -19 3 -45
7 -56 10 -12 2 -39 7 -60 11 -71 11 -99 15 -124 20 -29 5 -111 16 -155 20 -16
2 -51 6 -77 9 -301 41 -924 37 -1393 -9 -33 -3 -82 -8 -110 -10 -46 -4 -86 -8
-175 -20 -19 -3 -53 -7 -75 -10 -87 -10 -131 -16 -156 -20 -15 -3 -47 -7 -70
-10 -24 -3 -55 -8 -69 -10 -53 -9 -206 -35 -226 -39 -12 -2 -37 -7 -55 -10
-85 -14 -327 -65 -438 -92 -45 -12 -65 -13 -70 -5 -4 6 -7 1318 -6 2916 0
2898 0 2905 -20 2906 -138 6 -292 -2 -331 -17 -24 -9 -44 -21 -44 -25 0 -5 -5
-9 -12 -9 -19 0 -78 -72 -85 -102 -3 -16 -9 -28 -14 -28 -5 0 -9 -1309 -9
-3027 l0 -3028 30 -51 c69 -122 182 -165 324 -124 36 10 67 19 69 18 1 0 22 5
47 12 25 7 52 14 60 16 8 2 53 13 100 24 47 12 96 23 110 25 14 2 25 4 25 5 0
2 26 8 65 16 51 9 65 12 65 14 0 2 19 6 65 15 19 3 54 10 78 16 23 5 59 12 78
15 20 3 46 8 58 10 11 2 33 6 49 9 15 3 42 8 60 11 38 7 55 9 122 19 28 3 57
8 65 10 8 2 38 7 65 10 28 3 66 8 85 11 19 3 49 8 65 10 17 2 48 6 70 9 76 9
120 14 185 20 36 3 81 8 100 10 63 8 240 20 465 31 255 13 584 4 785 -21 30
-3 75 -8 100 -11 68 -6 120 -13 175 -24 28 -5 66 -12 85 -15 33 -5 162 -31
205 -41 11 -3 31 -7 45 -10 14 -3 39 -9 55 -14 17 -5 41 -11 55 -14 37 -7 131
-33 163 -45 15 -6 27 -8 27 -5 0 2 9 0 21 -6 11 -6 28 -13 37 -15 40 -8 255
-85 268 -96 8 -6 14 -9 14 -6 0 7 237 -89 267 -109 31 -19 130 -29 173 -16 19
6 86 33 148 60 62 28 121 52 130 54 9 3 20 6 24 7 4 1 29 11 55 22 72 31 343
119 411 134 46 10 58 14 85 24 15 6 27 8 27 6 0 -2 11 0 24 5 26 9 244 57 305
66 20 3 47 7 60 9 13 2 45 7 70 11 25 4 53 8 63 10 76 13 251 31 398 40 190
11 636 5 785 -11 22 -2 78 -7 125 -10 47 -3 103 -8 125 -11 22 -3 65 -7 95 -9
55 -4 76 -7 220 -26 41 -5 93 -11 116 -14 22 -2 54 -6 70 -9 16 -3 58 -10 94
-15 65 -10 167 -27 206 -35 12 -2 37 -7 55 -10 19 -3 70 -12 114 -21 44 -9 94
-18 110 -21 17 -3 44 -9 60 -14 17 -5 46 -11 65 -14 19 -3 56 -12 82 -19 26
-8 49 -13 52 -10 2 3 13 0 23 -5 10 -6 34 -13 53 -16 33 -6 61 -13 148 -36 20
-6 44 -12 52 -14 8 -2 40 -10 70 -18 139 -37 255 15 316 139 l23 48 0 3010 c0
2846 -1 3012 -18 3053 -23 58 -82 119 -139 143 -38 17 -70 20 -193 21 -80 1
-150 -1 -155 -5 -5 -3 -9 -1206 -9 -2916 0 -1601 0 -2911 -2 -2911 -1 0 -35 7
-75 16 -40 8 -82 17 -92 20 -11 2 -74 15 -140 29 -124 26 -150 32 -198 40 -16
3 -40 7 -55 10 -26 5 -172 30 -238 41 -16 3 -46 7 -65 9 -19 2 -35 4 -35 5 0
2 -22 5 -105 15 -36 4 -74 9 -85 12 -11 2 -42 6 -70 8 -27 2 -66 7 -85 9 -19
3 -66 8 -105 12 -38 3 -83 8 -100 10 -345 39 -958 48 -1285 18 -100 -8 -247
-25 -271 -29 -9 -2 -39 -7 -66 -11 -26 -3 -55 -8 -63 -9 -8 -2 -35 -6 -60 -10
-25 -4 -54 -9 -65 -11 -11 -2 -33 -7 -50 -10 -16 -3 -50 -10 -75 -15 -25 -6
-56 -13 -70 -15 -51 -10 -302 -75 -346 -90 -25 -8 -50 -14 -55 -12 -11 4 104
88 121 88 5 0 10 5 10 10 0 6 5 10 12 10 6 0 25 10 42 23 17 13 54 36 81 52
28 16 64 38 80 48 17 9 38 20 48 23 9 4 17 10 17 15 0 5 5 9 11 9 6 0 37 16
70 35 33 19 71 38 84 41 14 3 25 9 25 13 0 4 30 22 68 39 37 17 114 53 172 80
58 27 132 60 165 73 33 13 63 28 67 34 4 5 8 7 8 2 0 -4 14 -1 30 8 17 9 30
13 30 9 0 -4 6 -2 13 3 11 9 119 49 157 59 50 12 137 36 150 41 20 8 22 8 110
28 41 9 84 19 95 21 30 7 175 34 215 40 19 2 45 7 57 9 12 3 46 8 75 11 29 3
71 7 93 10 117 13 233 18 440 18 237 0 408 -9 545 -30 142 -21 250 30 307 145
17 34 18 158 20 2882 l3 2846 -30 60 c-44 89 -115 135 -227 148 -24 3 -64 8
-90 11 -74 10 -226 22 -348 29 -79 4 -517 5 -575 0 -25 -1 -94 -6 -155 -10
-60 -3 -123 -8 -140 -11 -16 -2 -55 -6 -85 -9 -100 -9 -154 -15 -210 -25 -30
-5 -71 -11 -90 -14 -19 -3 -82 -15 -140 -27 -58 -12 -112 -22 -120 -24 -8 -1
-22 -4 -30 -7 -8 -3 -62 -17 -120 -32 -58 -15 -109 -28 -115 -30 -76 -19 -367
-129 -402 -152 -13 -8 -23 -12 -23 -10 0 8 -195 -92 -268 -136 -34 -21 -66
-38 -71 -38 -5 0 -11 -3 -13 -7 -1 -5 -43 -35 -93 -68 -156 -104 -285 -213
-452 -381 l-161 -162 -44 51 c-23 29 -50 61 -58 71 -29 37 -235 242 -289 286
-29 25 -67 57 -85 72 -17 15 -34 28 -37 28 -3 0 -17 10 -30 21 -60 53 -250
172 -414 259 -57 30 -306 137 -340 146 -21 5 -111 37 -125 44 -13 6 -70 22
-90 25 -3 0 -9 3 -15 7 -5 3 -37 12 -70 19 -33 7 -64 14 -70 15 -144 34 -186
43 -215 48 -19 3 -48 8 -65 11 -50 8 -88 14 -125 19 -19 3 -51 7 -70 10 -19 3
-60 8 -90 11 -30 3 -77 8 -105 11 -27 4 -75 8 -105 11 -64 5 -687 13 -692 8z
m627 -519 c39 -4 95 -9 125 -12 30 -3 69 -7 85 -9 49 -5 128 -15 160 -20 17
-3 41 -7 55 -9 22 -3 160 -29 218 -40 12 -3 50 -12 85 -21 34 -9 69 -18 77
-20 119 -25 352 -116 516 -200 115 -59 314 -181 368 -226 177 -147 278 -246
375 -369 29 -36 58 -73 66 -83 8 -9 15 -20 15 -23 0 -3 11 -20 24 -37 13 -18
35 -52 48 -77 l25 -45 0 -2386 0 -2386 -156 102 c-86 56 -181 115 -211 131
-30 16 -57 31 -60 34 -31 31 -500 252 -560 264 -3 1 -9 4 -15 8 -8 5 -301 107
-315 110 -8 1 -22 5 -70 18 -25 7 -52 14 -60 15 -8 1 -44 9 -80 18 -36 8 -78
18 -95 21 -16 4 -39 8 -50 10 -11 3 -33 7 -50 10 -16 3 -55 10 -85 16 -30 6
-75 13 -100 16 -25 2 -56 7 -70 9 -50 10 -170 26 -235 31 -27 2 -68 6 -90 9
-22 3 -78 8 -125 11 -47 3 -107 7 -135 10 -27 2 -180 7 -340 9 l-289 4 1 347
c1 190 4 348 6 351 3 2 2 17 -3 32 -4 16 -5 34 -1 40 4 7 5 32 1 56 -4 24 -3
48 2 53 5 5 5 20 -1 34 -5 14 -7 29 -4 32 3 3 7 304 8 668 2 365 6 1167 10
1783 4 616 7 1247 8 1403 1 155 4 282 7 283 3 0 14 2 25 4 40 8 102 15 195 21
52 3 96 7 98 9 5 5 524 -3 597 -9z m5888 -30 c27 -2 51 -7 54 -10 8 -7 10
-5046 3 -5046 -3 -1 -153 -3 -335 -5 -181 -2 -350 -6 -375 -8 -105 -10 -182
-19 -198 -22 -9 -1 -42 -6 -72 -9 -30 -4 -68 -9 -85 -12 -16 -3 -46 -7 -65 -9
-19 -2 -35 -4 -35 -5 0 -1 -11 -3 -25 -5 -14 -2 -70 -13 -125 -25 -55 -12
-111 -24 -125 -26 -14 -3 -75 -18 -135 -34 -61 -17 -119 -32 -130 -35 -38 -9
-130 -37 -150 -45 -11 -5 -51 -21 -90 -35 -100 -39 -289 -118 -295 -125 -3 -3
-11 -6 -19 -8 -41 -9 -404 -198 -581 -302 -56 -33 -106 -60 -111 -60 -5 0 -9
-3 -9 -8 0 -4 -35 -29 -77 -55 -43 -26 -95 -59 -115 -72 l-37 -25 0 2415 c0
1505 4 2415 10 2415 5 0 9 6 9 13 1 14 94 139 171 228 82 96 238 246 319 307
25 19 47 37 50 41 3 4 32 24 65 46 33 21 62 42 65 45 8 10 209 123 263 148 95
44 163 73 177 76 3 1 11 5 17 9 7 5 21 10 30 12 10 3 54 18 98 34 69 25 149
47 310 87 17 4 32 8 35 9 6 1 64 13 100 20 13 3 40 7 60 10 20 3 45 7 57 9 30
6 81 14 138 22 28 3 58 8 67 9 16 4 115 14 188 21 19 1 91 6 160 10 69 3 126
8 128 9 4 4 564 -4 615 -9z"/>
<path d="M2094 7391 c-57 -23 -78 -40 -103 -86 -40 -75 -21 -168 45 -223 35
-29 70 -41 144 -48 95 -9 175 -18 235 -29 22 -3 51 -8 65 -10 50 -8 236 -46
275 -57 48 -14 42 -12 85 -22 60 -14 378 -115 425 -136 11 -5 47 -18 80 -30
33 -12 64 -25 70 -29 5 -4 26 -14 45 -21 75 -28 284 -133 392 -197 108 -64
116 -67 180 -67 59 -1 70 2 105 30 91 72 102 191 25 274 -21 22 -42 40 -46 40
-5 0 -43 21 -84 46 -129 78 -419 216 -587 278 -55 21 -116 44 -135 51 -19 8
-69 24 -110 35 -41 12 -84 26 -95 31 -20 8 -193 58 -224 64 -9 2 -16 4 -16 5
0 1 -9 3 -19 5 -11 2 -51 11 -90 19 -91 21 -114 26 -151 32 -16 3 -39 7 -50 9
-99 17 -160 26 -202 30 -35 3 -113 11 -188 19 -16 2 -48 -4 -71 -13z"/>
<path d="M2072 5975 c-87 -48 -125 -136 -95 -226 31 -92 78 -118 237 -134 100
-10 130 -14 155 -19 14 -3 47 -8 75 -11 28 -3 59 -8 69 -11 11 -3 29 -7 40 -9
25 -4 63 -12 127 -26 25 -6 52 -12 60 -14 8 -2 42 -10 75 -19 33 -9 67 -18 75
-20 8 -2 29 -7 45 -11 17 -4 35 -12 41 -17 7 -5 16 -8 20 -7 10 1 19 -1 151
-47 54 -19 105 -36 113 -38 16 -5 154 -61 235 -96 83 -35 274 -134 370 -190
50 -28 101 -54 114 -56 13 -3 26 -6 30 -6 3 -1 28 1 54 6 80 12 147 96 147
184 0 60 -56 140 -120 170 -19 9 -51 27 -70 40 -104 71 -657 318 -751 336 -27
5 -55 14 -84 27 -38 16 -355 106 -405 114 -14 2 -47 9 -75 15 -73 17 -87 20
-120 25 -16 2 -41 7 -55 9 -22 4 -109 17 -210 31 -86 13 -226 12 -248 0z"/>
<path d="M2087 4566 c-42 -16 -93 -63 -107 -102 -18 -47 -12 -114 15 -160 40
-68 77 -85 215 -99 25 -2 61 -7 80 -9 179 -23 205 -27 220 -33 8 -3 29 -7 45
-9 133 -20 325 -72 575 -156 96 -32 180 -60 185 -62 100 -30 395 -174 585
-285 86 -50 113 -61 149 -61 129 0 217 124 175 245 -13 39 -42 72 -99 112 -49
34 -286 163 -300 163 -7 0 -15 4 -17 9 -10 26 -554 242 -671 266 -9 2 -22 7
-27 10 -5 3 -18 8 -27 10 -10 2 -67 18 -128 35 -60 16 -119 32 -130 35 -11 2
-29 6 -40 9 -24 5 -217 43 -260 51 -46 8 -127 18 -152 19 -13 1 -23 3 -23 6 0
3 -15 5 -33 6 -17 0 -68 4 -112 7 -58 5 -91 3 -118 -7z"/>
<path d="M7647 7404 c-1 -1 -31 -5 -67 -8 -36 -4 -76 -9 -90 -11 -24 -4 -68
-10 -141 -20 -19 -2 -59 -9 -89 -15 -30 -6 -68 -13 -84 -15 -15 -3 -36 -7 -46
-10 -10 -3 -27 -8 -37 -10 -14 -3 -76 -17 -168 -39 -63 -16 -183 -52 -304 -93
-41 -14 -81 -27 -90 -28 -9 -2 -17 -4 -18 -5 -2 -2 -6 -3 -10 -5 -5 -1 -21 -7
-38 -14 -16 -7 -34 -14 -40 -15 -16 -4 -47 -17 -95 -38 -25 -11 -49 -21 -55
-23 -45 -9 -396 -185 -509 -254 -71 -44 -96 -64 -96 -77 0 -4 -6 -15 -14 -23
-20 -23 -26 -85 -12 -130 22 -76 83 -128 159 -135 43 -4 108 19 182 66 132 83
553 277 636 293 11 2 25 7 32 12 6 4 17 8 22 9 17 3 119 35 140 45 30 13 198
61 215 61 8 1 21 5 28 11 6 5 12 7 12 4 0 -3 15 -1 33 4 17 5 43 12 57 14 14
2 57 10 95 19 39 9 86 18 105 20 19 3 46 7 60 10 50 9 118 18 249 31 131 13
201 80 201 192 0 95 -78 173 -177 177 -24 1 -45 1 -46 0z"/>
<path d="M7618 5985 c-2 -2 -32 -6 -68 -9 -36 -3 -78 -7 -95 -10 -16 -3 -48
-7 -70 -10 -22 -3 -51 -8 -65 -11 -13 -2 -42 -7 -64 -11 -22 -3 -43 -7 -46 -9
-3 -2 -26 -6 -50 -10 -100 -15 -527 -134 -625 -175 -11 -4 -72 -27 -135 -51
-122 -45 -175 -68 -306 -130 -45 -22 -86 -39 -93 -39 -6 0 -11 -3 -11 -7 0 -5
-25 -19 -55 -33 -30 -14 -55 -28 -55 -31 0 -4 -11 -10 -24 -13 -14 -3 -31 -12
-38 -19 -7 -6 -31 -21 -53 -32 -93 -47 -135 -108 -130 -190 1 -28 6 -59 11
-70 12 -31 59 -74 98 -90 72 -30 121 -18 271 70 58 33 341 175 350 175 2 0 28
11 57 24 106 48 424 157 432 148 3 -3 6 -1 6 5 0 5 6 10 13 10 6 0 62 14 122
31 98 27 174 45 243 58 30 6 63 12 87 17 25 6 97 18 128 22 12 1 40 5 62 8 22
3 72 9 110 12 96 8 139 21 175 51 98 83 82 242 -30 302 -31 16 -140 28 -152
17z"/>
<path d="M7597 4574 c-2 -2 -50 -9 -137 -19 -25 -4 -61 -8 -80 -11 -19 -3 -46
-7 -60 -9 -36 -5 -148 -27 -200 -39 -47 -11 -75 -17 -100 -22 -14 -2 -32 -7
-40 -10 -8 -3 -26 -8 -40 -10 -14 -3 -52 -13 -85 -23 -149 -45 -180 -54 -185
-54 -3 1 -13 -3 -23 -9 -10 -5 -26 -11 -35 -13 -21 -4 -237 -82 -277 -100 -16
-7 -55 -23 -85 -35 -78 -31 -358 -169 -365 -180 -4 -6 -11 -8 -16 -5 -5 4 -9
1 -9 -4 0 -6 -5 -11 -11 -11 -6 0 -30 -12 -53 -27 -22 -16 -58 -37 -79 -48
-126 -66 -150 -210 -52 -311 6 -6 27 -19 48 -29 63 -29 125 -17 232 48 50 29
102 60 117 68 96 49 263 130 318 154 36 15 80 34 99 42 18 8 45 19 60 23 14 5
62 21 106 38 44 16 82 29 85 30 3 0 12 3 20 6 24 8 184 57 200 62 82 22 256
64 282 68 18 3 44 8 58 11 14 3 39 8 55 10 17 3 41 7 55 10 14 3 45 8 70 11
25 3 56 7 70 9 14 3 56 7 95 11 102 8 142 21 181 57 84 78 76 205 -19 281 -34
27 -44 30 -118 31 -44 0 -81 0 -82 -1z"/>
</g>
</svg>
