<?xml version="1.0" encoding="utf-8"?>
<!-- Generator: Adobe Illustrator 18.1.1, SVG Export Plug-In . SVG Version: 6.00 Build 0)  -->
<!DOCTYPE svg PUBLIC "-//W3C//DTD SVG 1.1//EN" "http://www.w3.org/Graphics/SVG/1.1/DTD/svg11.dtd">
<svg version="1.1" id="Warstwa_1" xmlns="http://www.w3.org/2000/svg" xmlns:xlink="http://www.w3.org/1999/xlink" x="0px" y="0px"
	 viewBox="0 0 196 55.7" enable-background="new 0 0 196 55.7" xml:space="preserve">
<g>
	<polygon fill-rule="evenodd" clip-rule="evenodd" fill="#C6093B" points="64.3,7.4 102.7,7.4 102.7,45.9 64.3,45.9 64.3,7.4 	"/>
	
		<path fill-rule="evenodd" clip-rule="evenodd" fill="#FFCE00" stroke="#FFCE00" stroke-width="0.167" stroke-miterlimit="22.9256" d="
		M77.9,7.3h0.7c4.2,12.8,4.2,25.8,0,38.6h-0.7C82.1,33.1,82.1,20.2,77.9,7.3L77.9,7.3z"/>
	
		<path fill-rule="evenodd" clip-rule="evenodd" fill="#FFCE00" stroke="#FFCE00" stroke-width="0.1669" stroke-miterlimit="22.9256" d="
		M75.3,17.4c1.1,0,1.9,0.9,1.9,1.9c0,1.1-0.9,1.9-1.9,1.9c-1.1,0-1.9-0.9-1.9-1.9C73.4,18.3,74.3,17.4,75.3,17.4L75.3,17.4z"/>
	
		<path fill-rule="evenodd" clip-rule="evenodd" fill="#FFCE00" stroke="#FFCE00" stroke-width="0.1669" stroke-miterlimit="22.9256" d="
		M87,17.4c1.1,0,1.9,0.9,1.9,1.9c0,1.1-0.9,1.9-1.9,1.9c-1.1,0-1.9-0.9-1.9-1.9C85,18.3,85.9,17.4,87,17.4L87,17.4z"/>
	
		<path fill-rule="evenodd" clip-rule="evenodd" fill="#FFCE00" stroke="#FFCE00" stroke-width="0.1669" stroke-miterlimit="22.9256" d="
		M95,17.4c1.1,0,1.9,0.9,1.9,1.9c0,1.1-0.9,1.9-1.9,1.9c-1.1,0-1.9-0.9-1.9-1.9C93.1,18.3,93.9,17.4,95,17.4L95,17.4z"/>
	<path fill-rule="evenodd" clip-rule="evenodd" fill="#C6093B" d="M65.3,51.6h-0.7v-2.7h0.8c0.3,0,0.5,0,0.6,0
		c0.1,0,0.2,0.1,0.3,0.1c0.1,0.1,0.2,0.2,0.2,0.3c0.1,0.1,0.1,0.3,0.1,0.4c0,0.2,0,0.3-0.1,0.4c-0.1,0.1-0.1,0.2-0.2,0.3
		c-0.1,0.1-0.2,0.1-0.3,0.1c-0.1,0-0.3,0-0.5,0h-0.1h-0.1V51.6L65.3,51.6z M65.3,50.1h0.1c0.2,0,0.3,0,0.4-0.1
		c0.1,0,0.1-0.1,0.1-0.2c0-0.1,0-0.2-0.1-0.2c-0.1,0-0.2-0.1-0.4-0.1h-0.1V50.1L65.3,50.1z M69.8,50.3c0,0.2,0,0.4-0.1,0.5
		c-0.1,0.2-0.2,0.3-0.3,0.4c-0.1,0.1-0.3,0.2-0.5,0.3c-0.2,0.1-0.4,0.1-0.5,0.1c-0.2,0-0.4,0-0.5-0.1c-0.2-0.1-0.3-0.2-0.5-0.3
		c-0.1-0.1-0.2-0.3-0.3-0.5c-0.1-0.2-0.1-0.3-0.1-0.5c0-0.2,0-0.4,0.1-0.5c0.1-0.2,0.2-0.3,0.3-0.4c0.1-0.1,0.3-0.2,0.5-0.3
		c0.2-0.1,0.4-0.1,0.5-0.1c0.2,0,0.4,0,0.5,0.1c0.2,0.1,0.3,0.2,0.5,0.3c0.1,0.1,0.2,0.3,0.3,0.4C69.7,49.9,69.8,50.1,69.8,50.3
		L69.8,50.3z M68.3,51.1c0.2,0,0.4-0.1,0.5-0.2c0.1-0.1,0.2-0.3,0.2-0.6c0-0.2-0.1-0.4-0.2-0.6c-0.1-0.1-0.3-0.2-0.5-0.2
		c-0.2,0-0.4,0.1-0.5,0.2c-0.1,0.1-0.2,0.3-0.2,0.6c0,0.2,0.1,0.4,0.2,0.6C68,51,68.1,51.1,68.3,51.1L68.3,51.1z M70.3,51.6v-2.7H71
		v2h0.9v0.6H70.3L70.3,51.6z M72.5,50.7c0.1,0.1,0.2,0.2,0.3,0.3c0.1,0.1,0.2,0.1,0.3,0.1c0.1,0,0.2,0,0.2-0.1
		c0.1-0.1,0.1-0.1,0.1-0.2c0-0.1,0-0.2-0.1-0.2c-0.1,0-0.2-0.1-0.4-0.1c-0.3-0.1-0.4-0.2-0.6-0.3c-0.1-0.1-0.2-0.3-0.2-0.5
		c0-0.3,0.1-0.5,0.3-0.6c0.2-0.2,0.4-0.2,0.7-0.2c0.1,0,0.3,0,0.4,0.1c0.1,0,0.3,0.1,0.4,0.2l-0.2,0.5c-0.1-0.1-0.2-0.1-0.3-0.2
		c-0.1,0-0.2-0.1-0.3-0.1c-0.1,0-0.2,0-0.2,0.1c-0.1,0-0.1,0.1-0.1,0.2c0,0.1,0,0.1,0.1,0.2c0,0,0.1,0.1,0.3,0.1l0,0
		c0.3,0.1,0.5,0.2,0.6,0.3c0.1,0.1,0.1,0.1,0.1,0.2c0,0.1,0,0.2,0,0.3c0,0.3-0.1,0.5-0.3,0.7c-0.2,0.2-0.4,0.3-0.7,0.3
		c-0.2,0-0.4,0-0.5-0.1c-0.2-0.1-0.3-0.2-0.4-0.3L72.5,50.7L72.5,50.7z M74.7,51.6v-2.7h0.7v1.2l0.8-1.2h0.8l-1,1.3l1.1,1.4h-0.9
		l-0.9-1.2v1.2H74.7L74.7,51.6z M78.2,50.6H79l-0.3-0.9c0,0,0-0.1,0-0.1c0-0.1,0-0.1-0.1-0.2c0,0.1,0,0.1,0,0.2c0,0.1,0,0.1,0,0.2
		L78.2,50.6L78.2,50.6z M77.2,51.6l0.9-2.7h0.9l0.9,2.7h-0.7l-0.1-0.5h-1L78,51.6H77.2L77.2,51.6z M82.1,51.6v-2.7h1.6v0.6h-0.9V50
		h0.9v0.6h-0.9v1H82.1L82.1,51.6z M84.2,48.9h0.7v1.3c0,0.2,0,0.3,0,0.4c0,0.1,0,0.2,0,0.2c0,0.1,0.1,0.1,0.1,0.2
		c0.1,0,0.2,0.1,0.3,0.1c0.1,0,0.2,0,0.3-0.1c0.1,0,0.1-0.1,0.1-0.2c0-0.1,0-0.1,0-0.2c0-0.1,0-0.2,0-0.4v-0.2v-1.1h0.7v1.4
		c0,0.3,0,0.5-0.1,0.6c0,0.1-0.1,0.3-0.2,0.4c-0.1,0.1-0.2,0.2-0.4,0.2c-0.2,0.1-0.4,0.1-0.6,0.1c-0.2,0-0.4,0-0.6-0.1
		c-0.2-0.1-0.3-0.1-0.4-0.2c-0.1-0.1-0.1-0.2-0.2-0.4c0-0.1-0.1-0.4-0.1-0.6v-0.3V48.9L84.2,48.9z M87.2,51.6v-2.7h0.7l1,1.4
		c0,0,0.1,0.1,0.1,0.2c0,0.1,0.1,0.2,0.1,0.3c0-0.1,0-0.2,0-0.3c0-0.1,0-0.2,0-0.2v-1.3h0.7v2.7h-0.7l-1-1.4c0,0-0.1-0.1-0.1-0.2
		c0-0.1-0.1-0.2-0.1-0.3c0,0.1,0,0.2,0,0.3c0,0.1,0,0.2,0,0.2v1.3H87.2L87.2,51.6z M90.4,51.6v-2.7H91c0.4,0,0.7,0,0.9,0.1
		c0.2,0,0.3,0.1,0.5,0.2c0.2,0.1,0.3,0.3,0.4,0.5c0.1,0.2,0.1,0.4,0.1,0.6c0,0.2,0,0.4-0.1,0.6c-0.1,0.2-0.2,0.3-0.4,0.5
		c-0.1,0.1-0.3,0.2-0.4,0.2c-0.2,0-0.4,0.1-0.8,0.1H91H90.4L90.4,51.6z M91.1,51h0.1c0.3,0,0.5-0.1,0.6-0.2c0.1-0.1,0.2-0.3,0.2-0.6
		c0-0.3-0.1-0.4-0.2-0.6c-0.1-0.1-0.3-0.2-0.6-0.2h-0.1V51L91.1,51z M93.9,50.6h0.7l-0.3-0.9c0,0,0-0.1,0-0.1c0-0.1,0-0.1-0.1-0.2
		c0,0.1,0,0.1,0,0.2c0,0.1,0,0.1,0,0.2L93.9,50.6L93.9,50.6z M92.9,51.6l0.9-2.7h0.9l0.9,2.7h-0.7l-0.1-0.5h-1l-0.1,0.5H92.9
		L92.9,51.6z M97.8,49v0.8c-0.1-0.1-0.2-0.2-0.3-0.2c-0.1-0.1-0.2-0.1-0.3-0.1c-0.2,0-0.4,0.1-0.5,0.2c-0.1,0.1-0.2,0.3-0.2,0.6
		c0,0.2,0.1,0.4,0.2,0.5c0.1,0.1,0.3,0.2,0.5,0.2c0.1,0,0.2,0,0.3-0.1c0.1-0.1,0.2-0.1,0.3-0.2v0.8c-0.1,0.1-0.2,0.1-0.3,0.1
		c-0.1,0-0.2,0-0.3,0c-0.1,0-0.3,0-0.4-0.1c-0.1,0-0.2-0.1-0.3-0.2c-0.2-0.1-0.3-0.3-0.5-0.5c-0.1-0.2-0.2-0.4-0.2-0.7
		c0-0.2,0-0.4,0.1-0.6c0.1-0.2,0.2-0.3,0.3-0.5c0.1-0.1,0.3-0.2,0.4-0.3c0.2-0.1,0.3-0.1,0.5-0.1c0.1,0,0.2,0,0.3,0
		C97.5,49,97.6,49,97.8,49L97.8,49z M98.8,48.9h0.7v1.7c0,0.2,0,0.3,0,0.4c0,0.1-0.1,0.2-0.1,0.3c-0.1,0.1-0.2,0.2-0.3,0.2
		c-0.1,0.1-0.2,0.1-0.4,0.1c-0.2,0-0.3,0-0.4-0.1c-0.1-0.1-0.2-0.2-0.3-0.3l0.4-0.4c0,0.1,0,0.1,0.1,0.2c0,0,0.1,0.1,0.2,0.1
		c0.1,0,0.1,0,0.1-0.1c0-0.1,0-0.3,0-0.6V48.9L98.8,48.9z M100.9,50.6h0.7l-0.3-0.9c0,0,0-0.1,0-0.1c0-0.1,0-0.1-0.1-0.2
		c0,0.1,0,0.1,0,0.2c0,0.1,0,0.1,0,0.2L100.9,50.6L100.9,50.6z M99.9,51.6l0.9-2.7h0.9l0.9,2.7h-0.7l-0.1-0.5h-1l-0.1,0.5H99.9
		L99.9,51.6z"/>
	<path fill-rule="evenodd" clip-rule="evenodd" fill="#C6093B" d="M64.6,55.7V53h0.6c0.4,0,0.7,0,0.9,0.1c0.2,0,0.3,0.1,0.5,0.2
		c0.2,0.1,0.3,0.3,0.4,0.5c0.1,0.2,0.1,0.4,0.1,0.6c0,0.2,0,0.4-0.1,0.6c-0.1,0.2-0.2,0.3-0.4,0.5c-0.1,0.1-0.3,0.2-0.4,0.2
		c-0.2,0-0.4,0.1-0.8,0.1h-0.1H64.6L64.6,55.7z M65.3,55.1h0.1c0.3,0,0.5-0.1,0.6-0.2c0.1-0.1,0.2-0.3,0.2-0.6
		c0-0.3-0.1-0.4-0.2-0.6c-0.1-0.1-0.3-0.2-0.6-0.2h-0.1V55.1L65.3,55.1z M69.4,55.7H67l1.3-2.1h-1.1V53h2.2l-1.3,2.1h1.2V55.7
		L69.4,55.7z M69.9,55.7V53h0.7v2.7H69.9L69.9,55.7z M71.1,55.7V53h1.6v0.6h-0.9v0.5h0.9v0.6h-0.9v0.4h0.9v0.6H71.1L71.1,55.7z
		 M75.2,53.1v0.8c-0.1-0.1-0.2-0.2-0.3-0.2c-0.1-0.1-0.2-0.1-0.3-0.1c-0.2,0-0.4,0.1-0.5,0.2c-0.1,0.1-0.2,0.3-0.2,0.6
		c0,0.2,0.1,0.4,0.2,0.5c0.1,0.1,0.3,0.2,0.5,0.2c0.1,0,0.2,0,0.3-0.1c0.1-0.1,0.2-0.1,0.3-0.2v0.8c-0.1,0.1-0.2,0.1-0.3,0.1
		c-0.1,0-0.2,0-0.3,0c-0.1,0-0.3,0-0.4-0.1c-0.1,0-0.2-0.1-0.3-0.2c-0.2-0.1-0.3-0.3-0.5-0.5c-0.1-0.2-0.2-0.4-0.2-0.7
		c0-0.2,0-0.4,0.1-0.6c0.1-0.2,0.2-0.3,0.3-0.5c0.1-0.1,0.3-0.2,0.4-0.3c0.2-0.1,0.3-0.1,0.5-0.1c0.1,0,0.2,0,0.3,0
		C75,53,75.1,53.1,75.2,53.1L75.2,53.1z M75.7,55.7V53h0.7v2.7H75.7L75.7,55.7z M78.3,55.7V53H79v2.7H78.3L78.3,55.7z M83.9,55.7
		h-0.7l-0.2-1.1c0-0.1,0-0.2,0-0.3c0-0.1,0-0.2,0-0.3c0,0.1-0.1,0.3-0.1,0.4c0,0,0,0.1,0,0.1l-0.4,1.2h-0.5l-0.4-1.2c0,0,0,0,0-0.1
		c-0.1-0.2-0.1-0.3-0.1-0.4c0,0.1,0,0.2,0,0.3c0,0.1,0,0.2,0,0.3l-0.2,1.1h-0.7l0.4-2.7h0.7l0.4,1.4c0,0,0,0,0,0
		c0,0.1,0.1,0.2,0.1,0.3c0,0,0-0.1,0-0.2c0-0.1,0-0.1,0.1-0.2l0.4-1.4h0.7L83.9,55.7L83.9,55.7z M84.5,55.7V53h0.7v2h0.9v0.6H84.5
		L84.5,55.7z M89,54.4c0,0.2,0,0.4-0.1,0.5c-0.1,0.2-0.2,0.3-0.3,0.4c-0.1,0.1-0.3,0.2-0.5,0.3c-0.2,0.1-0.4,0.1-0.5,0.1
		c-0.2,0-0.4,0-0.5-0.1c-0.2-0.1-0.3-0.2-0.5-0.3c-0.1-0.1-0.2-0.3-0.3-0.5c-0.1-0.2-0.1-0.3-0.1-0.5c0-0.2,0-0.4,0.1-0.5
		c0.1-0.2,0.2-0.3,0.3-0.4c0.1-0.1,0.3-0.2,0.5-0.3c0.2-0.1,0.4-0.1,0.5-0.1c0.2,0,0.4,0,0.5,0.1c0.2,0.1,0.3,0.2,0.5,0.3
		c0.1,0.1,0.2,0.3,0.3,0.4C89,54,89,54.2,89,54.4L89,54.4z M87.6,55.1c0.2,0,0.4-0.1,0.5-0.2c0.1-0.1,0.2-0.3,0.2-0.6
		c0-0.2-0.1-0.4-0.2-0.6c-0.1-0.1-0.3-0.2-0.5-0.2c-0.2,0-0.4,0.1-0.5,0.2c-0.1,0.1-0.2,0.3-0.2,0.6c0,0.2,0.1,0.4,0.2,0.6
		C87.3,55.1,87.4,55.1,87.6,55.1L87.6,55.1z M89.4,55.7V53h0.6c0.4,0,0.7,0,0.9,0.1c0.2,0,0.3,0.1,0.5,0.2c0.2,0.1,0.3,0.3,0.4,0.5
		c0.1,0.2,0.1,0.4,0.1,0.6c0,0.2,0,0.4-0.1,0.6c-0.1,0.2-0.2,0.3-0.4,0.5c-0.1,0.1-0.3,0.2-0.4,0.2c-0.2,0-0.4,0.1-0.8,0.1h-0.1
		H89.4L89.4,55.7z M90.1,55.1h0.1c0.3,0,0.5-0.1,0.6-0.2c0.1-0.1,0.2-0.3,0.2-0.6c0-0.3-0.1-0.4-0.2-0.6c-0.1-0.1-0.3-0.2-0.6-0.2
		h-0.1V55.1L90.1,55.1z M94.1,55.7h-2.4l1.3-2.1H92V53h2.2l-1.3,2.1h1.2V55.7L94.1,55.7z M94.7,55.7V53h0.7v2.7H94.7L94.7,55.7z
		 M96,55.7V53h1.6v0.6h-0.9v0.5h0.9v0.6h-0.9v0.4h0.9v0.6H96L96,55.7z M100.2,55.7h-2.4l1.3-2.1h-1.1V53h2.2L99,55.1h1.2V55.7
		L100.2,55.7z M101.2,55.7v-1.2l-0.9-1.4h0.8l0.4,0.7c0,0,0,0,0,0c0,0.1,0.1,0.1,0.1,0.2c0-0.1,0-0.1,0.1-0.2c0,0,0,0,0,0L102,53
		h0.8l-0.9,1.4v1.2H101.2L101.2,55.7z"/>
	<polygon fill-rule="evenodd" clip-rule="evenodd" fill="#C6093B" points="84,54.6 85.6,53.4 85.8,53.7 84.2,55 84,54.6 	"/>
	<path fill-rule="evenodd" clip-rule="evenodd" fill="#C6093B" d="M99.2,52.1c0.2,0,0.4,0.2,0.4,0.4c0,0.2-0.2,0.4-0.4,0.4
		c-0.2,0-0.4-0.2-0.4-0.4C98.8,52.3,99,52.1,99.2,52.1L99.2,52.1z"/>
	<path fill-rule="evenodd" clip-rule="evenodd" fill="#C6093B" d="M96.9-0.1L96.9-0.1c0.5,0,0.9,0.4,0.9,0.8v3.8
		c0,0.5-0.4,0.8-0.9,0.8h-0.1c-0.5,0-0.9-0.4-0.9-0.8V0.8C96.1,0.3,96.5-0.1,96.9-0.1L96.9-0.1z"/>
	<path fill-rule="evenodd" clip-rule="evenodd" fill="#C6093B" d="M92.6-0.1L92.6-0.1c0.5,0,0.9,0.4,0.9,0.8v3.8
		c0,0.5-0.4,0.8-0.9,0.8h-0.1c-0.5,0-0.9-0.4-0.9-0.8V0.8C91.7,0.3,92.1-0.1,92.6-0.1L92.6-0.1z"/>
	<path fill-rule="evenodd" clip-rule="evenodd" fill="#C6093B" d="M88.2-0.1L88.2-0.1c0.5,0,0.9,0.4,0.9,0.8v3.8
		c0,0.5-0.4,0.8-0.9,0.8h-0.1c-0.5,0-0.9-0.4-0.9-0.8V0.8C87.4,0.3,87.8-0.1,88.2-0.1L88.2-0.1z"/>
	<path fill-rule="evenodd" clip-rule="evenodd" fill="#C6093B" d="M83.9-0.1L83.9-0.1c0.5,0,0.9,0.4,0.9,0.8v3.8
		c0,0.5-0.4,0.8-0.9,0.8h-0.1C83.4,5.4,83,5,83,4.6V0.8C83,0.3,83.4-0.1,83.9-0.1L83.9-0.1z"/>
	<path fill-rule="evenodd" clip-rule="evenodd" fill="#C6093B" d="M43.9,20C43.9,20,43.9,20,43.9,20c2.8-2,5.6-3.3,8.6-4
		c3-0.7,6.1-0.9,9.4-0.4c0,0,0.1,0,0.1,0c0.3,0,0.6,0.3,0.7,0.6c0.1,0.4-0.2,0.9-0.6,1c-0.1,0-0.2,0-0.3,0v0c-3.1-0.4-6-0.3-8.9,0.4
		c-2.8,0.7-5.5,1.9-8.1,3.7l0,0c-0.1,0.1-0.2,0.1-0.3,0.1c-0.4,0.1-0.9-0.2-1-0.6C43.5,20.6,43.6,20.2,43.9,20L43.9,20z"/>
	<path fill-rule="evenodd" clip-rule="evenodd" fill="#C6093B" d="M45.7,25.3C45.8,25.2,45.8,25.2,45.7,25.3c2.1-2.7,4.4-4.8,7-6.4
		c2.6-1.6,5.6-2.6,8.9-3.1c0,0,0.1,0,0.1,0c0.3-0.1,0.7,0.1,0.9,0.4c0.2,0.4,0.1,0.9-0.3,1.1c-0.1,0.1-0.2,0.1-0.3,0.1v0
		c-3.1,0.5-5.8,1.5-8.3,3c-2.5,1.5-4.7,3.4-6.6,5.9l0,0c-0.1,0.1-0.1,0.2-0.2,0.2c-0.4,0.2-0.9,0.1-1.1-0.3
		C45.5,25.9,45.5,25.5,45.7,25.3L45.7,25.3z"/>
	<path fill-rule="evenodd" clip-rule="evenodd" fill="#C6093B" d="M49.2,29.9C49.2,29.8,49.3,29.8,49.2,29.9c1.1-3.2,2.7-6,4.7-8.3
		c2-2.3,4.5-4.2,7.5-5.7c0,0,0.1,0,0.1,0c0.3-0.2,0.7-0.1,0.9,0.1c0.3,0.3,0.4,0.8,0.1,1.2c-0.1,0.1-0.2,0.1-0.3,0.2l0,0
		c-2.8,1.4-5.1,3.3-7,5.5c-1.9,2.2-3.4,4.7-4.5,7.6l0,0c0,0.1-0.1,0.2-0.2,0.3c-0.3,0.3-0.8,0.4-1.2,0.1
		C49.2,30.5,49.1,30.2,49.2,29.9L49.2,29.9z"/>
	
		<path fill-rule="evenodd" clip-rule="evenodd" fill="#FFCE00" stroke="#FFCE00" stroke-width="0.1671" stroke-miterlimit="22.9256" d="
		M99,36c0,0-0.1,0-0.1,0c-4.8,1.4-9.4,1.8-14,1.3c-4.6-0.5-9.1-1.9-13.4-4.2c0,0-0.1,0-0.1-0.1c-0.4-0.2-0.7-0.7-0.7-1.2
		c0.1-0.7,0.7-1.2,1.4-1.1c0.2,0,0.3,0.1,0.5,0.1l0,0c4.1,2.1,8.4,3.4,12.7,3.8c4.3,0.5,8.7,0.1,13.2-1.1l0,0c0.1,0,0.3-0.1,0.5,0
		c0.7,0.1,1.2,0.7,1.1,1.4C99.9,35.5,99.5,35.9,99,36L99,36z"/>
</g>
<g>
	<path fill="#C3161C" d="M125.2,10.8c0.1,0,0.2,0,0.3-0.1C125.4,10.8,125.3,10.8,125.2,10.8C125.2,10.8,125.2,10.8,125.2,10.8z"/>
	<g>
		<g>
			<path fill="#276092" d="M140.6,55.7c-1.7,0-3.2-0.4-4.2-0.9l0.7-1.9c0.8,0.4,2,0.8,3.3,0.8c2,0,2.9-1,2.9-3v-0.9
				c-0.6,0.3-1.6,0.5-2.4,0.5c-3,0-5.1-2.1-5.1-5.7c0-4.1,2.4-6,5.9-6c1.6,0,3,0.4,4,0.8v11.3C145.7,54,143.7,55.7,140.6,55.7z
				 M143.3,40.8c-0.4-0.2-1-0.3-1.8-0.3c-1.9,0-3.3,1.2-3.3,4.1c0,2.6,1.3,3.9,3.1,3.9c0.7,0,1.5-0.2,1.9-0.4V40.8z"/>
			<path fill="#276092" d="M154.1,40.7c-0.4-0.1-0.8-0.1-1.2-0.1c-0.7,0-1.4,0.1-1.9,0.3v9.9h-2.4V39.5c1.1-0.5,2.8-0.8,4.6-0.8
				c0.5,0,1,0,1.3,0.1L154.1,40.7z"/>
			<path fill="#276092" d="M160.9,51c-3.4,0-5.1-1.4-5.1-3.7c0-3.3,3.5-3.9,7.1-4.1v-0.8c0-1.5-1-2-2.5-2c-1.1,0-2.5,0.4-3.3,0.7
				l-0.6-1.7c0.9-0.4,2.6-0.8,4.2-0.8c2.8,0,4.6,1.1,4.6,4v7.5C164.4,50.7,162.6,51,160.9,51z M162.9,44.8c-2.4,0.1-4.9,0.3-4.9,2.5
				c0,1.3,1,2,2.8,2c0.8,0,1.7-0.1,2.1-0.3V44.8z"/>
			<path fill="#276092" d="M175.3,50.8v-7.9c0-1.4-0.8-2.3-2.5-2.3c-0.9,0-1.7,0.2-2.2,0.4v9.8h-2.4V39.5c1.2-0.5,2.7-0.8,4.6-0.8
				c3.3,0,4.9,1.5,4.9,4v8.2H175.3z"/>
			<path fill="#276092" d="M184.6,50.9c-2.1,0-3.3-1.2-3.3-3.5v-6.8h-1.6v-1.8h1.6v-2.8l2.4-0.7v3.5h2.4v1.8h-2.4v6.6
				c0,1.1,0.7,1.5,1.6,1.5c0.3,0,0.6-0.1,0.8-0.2v2C185.8,50.8,185.2,50.9,184.6,50.9z"/>
			<path fill="#276092" d="M191.4,51c-1.4,0-2.8-0.4-3.7-0.8l0.8-1.9c0.6,0.4,1.9,0.8,2.8,0.8c1.3,0,2.2-0.6,2.2-1.6
				c0-1.1-0.9-1.5-2.1-1.9c-1.6-0.6-3.4-1.3-3.4-3.6c0-2,1.5-3.3,4.2-3.3c1.4,0,2.6,0.4,3.5,0.8l-0.8,1.7c-0.5-0.3-1.6-0.7-2.5-0.7
				c-1.3,0-2,0.7-2,1.5c0,1.1,0.9,1.5,2.1,1.9c1.7,0.6,3.5,1.3,3.5,3.6C196,49.6,194.4,51,191.4,51z"/>
		</g>
	</g>
	<g>
		<g>
			<path fill="#276092" d="M146,28.3l-7.9,1.1c0.2,2.1,1.6,3.2,3.6,3.2c1.2,0,2.5-0.3,3.3-0.7l0.7,1.8c-0.9,0.5-2.5,0.8-4.2,0.8
				c-3.8,0-5.9-2.4-5.9-6.2c0-3.6,2-6.2,5.4-6.2c3.1,0,4.9,2,4.9,5.2C146.1,27.6,146.1,28,146,28.3z M141.1,23.9
				c-1.9,0-3.1,1.4-3.1,3.9l5.8-0.8C143.7,24.9,142.7,23.9,141.1,23.9z"/>
			<path fill="#276092" d="M158.4,28.3l-7.9,1.1c0.2,2.1,1.6,3.2,3.6,3.2c1.2,0,2.5-0.3,3.3-0.7l0.7,1.8c-0.9,0.5-2.5,0.8-4.2,0.8
				c-3.8,0-5.9-2.4-5.9-6.2c0-3.6,2-6.2,5.4-6.2c3.1,0,4.9,2,4.9,5.2C158.4,27.6,158.4,28,158.4,28.3z M153.5,23.9
				c-1.9,0-3.1,1.4-3.1,3.9l5.8-0.8C156.1,24.9,155.1,23.9,153.5,23.9z"/>
			<path fill="#276092" d="M165.4,34.5c-3.4,0-5.1-1.4-5.1-3.7c0-3.3,3.5-3.9,7.1-4.1v-0.8c0-1.5-1-2-2.5-2c-1.1,0-2.5,0.4-3.3,0.7
				l-0.6-1.7c1-0.4,2.6-0.8,4.2-0.8c2.8,0,4.6,1.1,4.6,4v7.5C168.8,34.1,167,34.5,165.4,34.5z M167.3,28.3c-2.4,0.1-4.9,0.3-4.9,2.5
				c0,1.3,1,2,2.8,2c0.8,0,1.7-0.1,2.1-0.3V28.3z"/>
		</g>
	</g>
	<g>
		<g>
			<path fill="#276092" d="M135.8,3.9V0h0.6v3.9H135.8z"/>
			<path fill="#276092" d="M138.7,3.9c-0.8,0-1.5-0.6-1.5-2c0-1.3,0.7-2,1.5-2c0.3,0,0.6,0.1,0.8,0.2l-0.2,0.5
				c-0.1-0.1-0.3-0.2-0.6-0.2c-0.5,0-1,0.5-1,1.5s0.4,1.5,1,1.5c0.2,0,0.5-0.1,0.6-0.2l0.2,0.5C139.3,3.9,139,3.9,138.7,3.9z"/>
			<path fill="#276092" d="M140.2,3.9V0h2v0.5h-1.4v1.1h1.3v0.5h-1.3v1.2h1.4v0.5H140.2z"/>
			<path fill="#276092" d="M143,3.9V0h0.6v3.4h1.3v0.5H143z"/>
			<path fill="#276092" d="M148.1,3.9l-0.3-1h-1.4l-0.3,1h-0.6l1.3-3.9h0.7l1.3,3.9H148.1z M147.1,1c-0.1-0.2-0.1-0.4-0.1-0.5h0
				c0,0.1-0.1,0.3-0.1,0.5l-0.5,1.4h1.2L147.1,1z"/>
			<path fill="#276092" d="M151.6,3.9L150,1.3c-0.1-0.2-0.2-0.4-0.2-0.4h0c0,0,0,0.2,0,0.5v2.5h-0.5V0h0.5l1.5,2.5
				c0.1,0.2,0.2,0.4,0.2,0.4h0c0,0,0-0.3,0-0.5V0h0.5v3.9H151.6z"/>
			<path fill="#276092" d="M154.1,3.9c-0.4,0-0.8-0.1-1-0.2V0.2c0.2-0.1,0.6-0.2,1-0.2c1,0,1.7,0.7,1.7,2
				C155.8,3.3,155.1,3.9,154.1,3.9z M154.1,0.5c-0.2,0-0.4,0-0.5,0.1v2.8c0.1,0,0.3,0.1,0.5,0.1c0.6,0,1-0.4,1-1.5
				C155.2,0.9,154.7,0.5,154.1,0.5z"/>
			<path fill="#276092" d="M135.8,9.2V5.4h0.6v3.3h1.3v0.5H135.8z"/>
			<path fill="#276092" d="M138.4,9.2V5.4h0.6v3.9H138.4z"/>
			<path fill="#276092" d="M139.9,9.2V5.4h2v0.5h-1.4V7h1.3v0.5h-1.3v1.2h1.4v0.5H139.9z"/>
			<path fill="#276092" d="M144.1,9.3c-0.8,0-1.5-0.6-1.5-2s0.7-2,1.5-2c0.3,0,0.6,0.1,0.8,0.2L144.7,6c-0.1-0.1-0.3-0.2-0.6-0.2
				c-0.5,0-1,0.5-1,1.5c0,1,0.4,1.5,1,1.5c0.2,0,0.5-0.1,0.6-0.2l0.2,0.5C144.7,9.2,144.5,9.3,144.1,9.3z"/>
			<path fill="#276092" d="M147.7,9.2V7.5h-1.4v1.7h-0.6V5.4h0.6V7h1.4V5.4h0.6v3.9H147.7z"/>
			<path fill="#276092" d="M150.5,5.9v3.3h-0.6V5.9H149V5.4h2.4v0.5H150.5z"/>
			<path fill="#276092" d="M152,9.2V5.4h2v0.5h-1.4V7h1.3v0.5h-1.3v1.2h1.4v0.5H152z"/>
			<path fill="#276092" d="M157.1,9.2l-1.6-2.6c-0.1-0.2-0.2-0.4-0.2-0.4h0c0,0,0,0.3,0,0.5v2.5h-0.5V5.4h0.5l1.5,2.5
				c0.1,0.2,0.2,0.4,0.2,0.4h0c0,0,0-0.3,0-0.5V5.4h0.5v3.9H157.1z"/>
			<path fill="#276092" d="M159.4,9.3c-0.4,0-0.7-0.1-1-0.2l0.2-0.5c0.2,0.1,0.5,0.2,0.7,0.2c0.4,0,0.7-0.2,0.7-0.6
				c0-0.3-0.3-0.5-0.6-0.6c-0.5-0.2-1-0.5-1-1.1c0-0.7,0.5-1.1,1.2-1.1c0.4,0,0.7,0.1,0.9,0.2L160.3,6c-0.1-0.1-0.4-0.2-0.7-0.2
				c-0.4,0-0.6,0.2-0.6,0.5c0,0.3,0.3,0.5,0.6,0.6c0.4,0.2,1,0.5,1,1.1C160.7,8.8,160.2,9.3,159.4,9.3z"/>
			<path fill="#276092" d="M162.6,5.9v3.3H162V5.9h-0.9V5.4h2.4v0.5H162.6z"/>
			<path fill="#276092" d="M164.2,9.2V5.4h2v0.5h-1.4V7h1.3v0.5h-1.3v1.2h1.4v0.5H164.2z"/>
			<path fill="#276092" d="M167,9.2V5.4h0.6v3.9H167z"/>
			<path fill="#276092" d="M170.9,9.2l-1.6-2.6c-0.1-0.2-0.2-0.4-0.2-0.4h0c0,0,0,0.3,0,0.5v2.5h-0.5V5.4h0.5l1.5,2.5
				c0.1,0.2,0.2,0.4,0.2,0.4h0c0,0,0-0.3,0-0.5V5.4h0.5v3.9H170.9z"/>
			<path fill="#276092" d="M138.1,14.5l-1.6-2.6c-0.1-0.2-0.2-0.4-0.2-0.4h0c0,0,0,0.3,0,0.5v2.5h-0.5v-3.9h0.5l1.5,2.5
				c0.1,0.2,0.2,0.4,0.2,0.4h0c0,0,0-0.3,0-0.5v-2.4h0.5v3.9H138.1z"/>
			<path fill="#276092" d="M140.9,14.6c-1,0-1.5-0.9-1.5-2c0-1.1,0.5-2,1.5-2c1,0,1.5,0.9,1.5,2C142.4,13.7,141.9,14.6,140.9,14.6z
				 M140.9,11.1c-0.6,0-0.9,0.6-0.9,1.5c0,0.8,0.3,1.5,0.9,1.5s0.9-0.6,0.9-1.5C141.8,11.8,141.5,11.1,140.9,11.1z"/>
			<path fill="#276092" d="M145.2,14.5l-0.5-1.2c-0.1-0.3-0.3-0.4-0.6-0.4h-0.3v1.6h-0.6v-3.7c0.3-0.1,0.7-0.2,1.1-0.2
				c0.9,0,1.4,0.4,1.4,1.1c0,0.6-0.4,0.9-0.8,1v0c0.2,0.1,0.3,0.3,0.5,0.5l0.6,1.3H145.2z M144.3,11.1c-0.2,0-0.4,0-0.5,0.1v1.3h0.5
				c0.5,0,0.9-0.2,0.9-0.7C145.1,11.3,144.8,11.1,144.3,11.1z"/>
			<path fill="#276092" d="M149.8,14.5h-0.6l-0.6-2.5c-0.1-0.2-0.1-0.4-0.1-0.5h0c0,0.1-0.1,0.4-0.1,0.5l-0.6,2.5h-0.6l-1-3.9h0.6
				l0.6,2.6c0,0.2,0.1,0.4,0.1,0.5h0c0-0.1,0-0.3,0.1-0.5l0.6-2.6h0.5l0.6,2.6c0,0.2,0.1,0.4,0.1,0.5h0c0-0.1,0-0.3,0.1-0.5l0.6-2.6
				h0.6L149.8,14.5z"/>
			<path fill="#276092" d="M153.7,14.5l-0.3-1h-1.4l-0.3,1h-0.6l1.3-3.9h0.7l1.3,3.9H153.7z M152.7,11.6c-0.1-0.2-0.1-0.4-0.1-0.5h0
				c0,0.1-0.1,0.3-0.1,0.5l-0.5,1.4h1.2L152.7,11.6z"/>
			<path fill="#276092" d="M156,13v1.5h-0.6V13l-1.2-2.3h0.6l0.8,1.7h0l0.8-1.7h0.6L156,13z"/>
		</g>
	</g>
	<g>
		<g>
			<path fill="#276092" d="M115.1,0l0,3.8c2.7,0,5.5,1.1,7.5,3.2c0.1,0.1,0.3,0.3,0.4,0.4c1.4-0.4,2.9-0.6,4.3-0.6
				c-0.6-0.9-1.2-1.7-2-2.5C122.6,1.5,118.9,0,115.1,0z"/>
			<path fill="#276092" d="M125.2,10.8c1.5,3.9,0.6,8.4-2.5,11.6c-1.6,1.6-3.6,2.6-5.7,3c-1.3,0.2-2.7,0.3-4,0c0.4,1.4,1,2.7,1.8,4
				c1.5,0,2.9-0.2,4.3-0.6c2.3-0.7,4.5-1.9,6.3-3.7c3.9-3.9,5.1-9.3,3.8-14.3C127.8,10.6,126.5,10.6,125.2,10.8z"/>
		</g>
		<g>
			<g>
				<g>
					<path fill="#AC162C" d="M119.1,28.8c-1.4,0.4-2.9,0.6-4.3,0.6c0.6,0.9,1.2,1.7,2,2.5c2.8,2.8,6.5,4.3,10.2,4.3v-3.8
						c-2.7,0-5.5-1.1-7.5-3.2C119.4,29.1,119.2,28.9,119.1,28.8z"/>
				</g>
				<g>
					<path fill="#AC162C" d="M123.1,7.4c-2.3,0.7-4.5,1.9-6.3,3.7c-3.9,3.9-5.1,9.3-3.8,14.3c1.3,0.2,2.7,0.2,4,0
						c-1.5-3.9-0.6-8.4,2.5-11.6c1.6-1.6,3.6-2.6,5.7-3c1.3-0.2,2.7-0.3,4,0c-0.4-1.4-1-2.7-1.8-4C125.9,6.8,124.5,7,123.1,7.4z"/>
				</g>
			</g>
		</g>
	</g>
</g>
<g>
	<path fill="#054D80" d="M0,1c0.8,0,1.6,0,2.4,0c0-0.4,0-0.8,0.1-1.1c9.5,0,19,0,28.5,0c0,0.2,0,0.5,0,0.7c0,7.7,0,15.4,0,23.2
		c0,0.5-0.1,0.9-0.6,1c-0.7,0.2-0.9,0.7-0.9,1.5c0.1,1.8,0,3.6,0,5.4c0,0.2,0,0.4,0,0.7c-9.9,0-19.7,0-29.5,0C0,21.9,0,11.5,0,1z
		 M3.9,1.3c0,0.3,0,0.6,0,0.8c0.3,2.8,0.5,5.6,0.9,8.3c0.6,3.7,1.7,7.2,3.9,10.3c2.6,3.8,6.3,5.6,11,5.6c3.3-0.1,6.3-1,9.3-2.4
		c0.5-0.2,0.6-0.5,0.6-1c0-7,0-13.9,0-20.9c0-0.2,0-0.5,0-0.8C21,1.3,12.5,1.3,3.9,1.3z M1.4,30.9c8.9,0,17.8,0,26.7,0
		c0-1.7,0-3.3,0-4.9C27.9,26,27.8,26,27.6,26c-2.2,0.8-4.4,1.4-6.7,1.6c-2.9,0.3-5.7-0.2-8.4-1.6c-3.2-1.7-5.3-4.5-6.8-7.8
		C3.8,14,3.1,9.4,2.7,4.7C2.6,4,2.6,3.2,2.5,2.5c-0.4,0-0.8,0-1.1,0C1.4,11.9,1.4,21.4,1.4,30.9z"/>
	<path fill="#054D80" d="M17.2,43.4c0-1.7,0-3.4,0-5.1c0.4,0,0.7,0,1.1,0c0,2.4,0,4.8,0,7.2c-0.5,0-0.9,0-1.4,0
		c-0.1,0-0.3-0.2-0.4-0.4c-0.7-1.5-1.5-2.9-2.2-4.4c-0.1-0.2-0.2-0.3-0.4-0.4c0,1.7,0,3.4,0,5.2c-0.4,0-0.7,0-1.1,0
		c0-2.4,0-4.8,0-7.2c0.5,0,1,0,1.4,0c0.2,0,0.3,0.2,0.4,0.4c0.7,1.4,1.4,2.8,2.1,4.2c0.1,0.2,0.2,0.4,0.3,0.5
		C17.1,43.4,17.2,43.4,17.2,43.4z"/>
	<path fill="#054D80" d="M20.6,55.7c-1.8,0-2.8-0.8-3.2-2.6c-0.2-1.2-0.1-2.3,0.4-3.4c0.7-1.2,2.1-1.7,3.6-1.5
		c1.4,0.3,2.4,1.2,2.5,2.7c0.1,0.8,0,1.7-0.1,2.5C23.4,55,22.2,55.8,20.6,55.7z M18.6,52.1c0.1,0.4,0.1,0.8,0.2,1.2
		c0.3,0.9,0.9,1.3,1.8,1.3c0.9,0,1.5-0.4,1.8-1.3c0.2-0.9,0.3-1.8,0-2.6c-0.3-0.9-0.9-1.4-2-1.3c-0.9,0-1.5,0.6-1.7,1.5
		C18.7,51.2,18.7,51.6,18.6,52.1z"/>
	<path fill="#054D80" d="M47.2,55.7c-1.9,0-2.9-0.9-3.2-2.8c-0.2-1.2-0.1-2.4,0.6-3.4c0.8-1.2,2-1.5,3.4-1.3c1.3,0.2,2.1,1,2.5,2.3
		c0.3,1,0.2,2-0.1,3C49.9,55,48.8,55.7,47.2,55.7z M47.2,54.6c1,0,1.6-0.4,1.8-1.4c0.2-0.9,0.3-1.8,0-2.7c-0.3-0.8-0.9-1.3-1.8-1.3
		c-0.9,0-1.5,0.4-1.8,1.3c-0.3,0.9-0.3,1.8,0,2.7C45.7,54.2,46.3,54.6,47.2,54.6z"/>
	<path fill="#054D80" d="M20.4,45.6c0-2.4,0-4.8,0-7.2c1.3,0,2.6-0.2,3.8,0.2c1.3,0.5,1.9,1.6,1.9,2.9c0.1,2.1-0.7,3.6-2.6,4
		c-0.5,0.1-0.9,0.1-1.4,0.1C21.5,45.6,21,45.6,20.4,45.6z M21.6,39.4c0,1.7,0,3.4,0,5.1c1.1,0,2.1,0.2,2.7-0.9
		c0.6-0.9,0.5-2.6-0.1-3.4C23.6,39.2,22.6,39.3,21.6,39.4z"/>
	<path fill="#054D80" d="M0,48.3c1,0,1.9,0.1,2.8,0.1c0.7,0.1,1.3,0.4,1.5,1.2c0.2,0.8,0,1.4-0.7,1.9c0,0-0.1,0.1-0.1,0.2
		c0.8,0.3,1.3,0.9,1.3,1.8c0,1.1-0.6,1.9-1.7,2c-1,0.1-2,0.1-3,0.2C0,53.2,0,50.8,0,48.3z M1.2,53.5c0,1.3,0.1,1.3,1.3,1.1
		c0.7-0.1,1-0.5,0.9-1.1c0-0.6-0.4-0.9-1-1C1.2,52.3,1.2,52.3,1.2,53.5z M1.2,50.4c0.2,0.4-0.3,1.1,0.6,1c0.9,0,1.3-0.3,1.3-1.1
		c0-0.7-0.4-1-1.3-1C0.8,49.3,1.4,50,1.2,50.4z"/>
	<path fill="#054D80" d="M26.7,52.7c0,1,0,1.9,0,2.9c-0.4,0-0.8,0-1.2,0c0-2.4,0-4.8,0-7.3c1.1,0.1,2.1,0.1,3.1,0.2
		c0.8,0.1,1.3,0.7,1.4,1.5c0.1,0.8-0.1,1.5-0.8,2c-0.1,0.1-0.3,0.2-0.5,0.3c0.6,1.1,1.1,2.2,1.7,3.3c-0.4,0-0.8,0-1.1,0
		c-0.2,0-0.5-0.2-0.6-0.3c-0.4-0.7-0.8-1.5-1.1-2.2C27.4,52.6,27.2,52.5,26.7,52.7z M26.7,49.4c0,0.8,0,1.5,0,2.2
		c0.7,0,1.3,0.1,1.7-0.5c0.3-0.4,0.3-0.8,0-1.2C28,49.3,27.4,49.4,26.7,49.4z"/>
	<path fill="#054D80" d="M9.4,38.3c0.5,0,0.8,0,1.1,0c0,1.8,0.1,3.6,0,5.4c-0.1,1.2-1.1,1.9-2.5,2c-1.5,0-2.4-0.5-2.8-1.7
		c-0.1-0.3-0.1-0.6-0.1-0.8c0-1.6,0-3.2,0-4.8c0.4,0,0.8,0,1.3,0c0,0.5,0,1,0,1.5c0,1.1,0,2.2,0,3.4c0,1,0.8,1.6,1.9,1.4
		c0.5-0.1,1-0.5,1-1.1c0.1-1.4,0.1-2.8,0.1-4.2C9.4,39,9.4,38.7,9.4,38.3z"/>
	<path fill="#054D80" d="M42.7,48.9c-0.1,0.3-0.2,0.6-0.4,0.9c-0.3-0.1-0.5-0.2-0.7-0.2c-2.1-0.7-3.6,0.5-3.4,2.7
		c0.2,1.7,1,2.5,2.5,2.4c0.4,0,0.7-0.2,0.7-0.7c0-0.7,0-1.4,0-2.1c0.5,0,0.8,0,1.3,0c0,1.1,0,2.2,0,3.3c0,0.1-0.1,0.2-0.2,0.3
		c-1.3,0.4-2.6,0.6-3.8-0.1c-0.2-0.1-0.4-0.2-0.6-0.4c-1.4-1.2-1.5-4-0.3-5.5C38.9,48.1,41.3,47.8,42.7,48.9z"/>
	<path fill="#054D80" d="M50.1,45.6c-0.2,0-0.3,0-0.5,0c-0.3,0-0.6,0-0.9,0c-0.1-0.5-0.2-0.9-0.4-1.3c-0.1-0.2-0.3-0.3-0.5-0.4
		c-0.7,0-1.3,0-2,0c-0.1,0-0.3,0.2-0.4,0.3c-0.1,0.1-0.1,0.2-0.1,0.4c-0.3,1.1-0.3,1.1-1.5,0.9c0.4-1.3,0.8-2.5,1.2-3.8
		c0.3-1,0.7-1.9,1-2.9c0.1-0.4,0.3-0.5,0.7-0.5c1,0,1,0,1.3,0.9c0.6,1.9,1.3,3.8,1.9,5.7C50,45.1,50,45.3,50.1,45.6z M47.9,42.8
		c-0.3-1.1-0.7-2.1-1-3.1c0,0-0.1,0-0.1,0c-0.3,1-0.7,2-1,3.1C46.5,42.8,47.2,42.8,47.9,42.8z"/>
	<path fill="#054D80" d="M26.6,45.5c0.8-2.4,1.6-4.8,2.4-7.2c0.6,0,1.1,0,1.6,0c0.8,2.4,1.6,4.8,2.4,7.2c-0.5,0-1,0-1.5,0
		c-0.1-0.4-0.3-0.8-0.4-1.3c-0.1-0.3-0.2-0.5-0.5-0.4c-0.6,0-1.3,0-1.9,0c-0.3,0-0.5,0.1-0.5,0.4c0,0.1-0.1,0.2-0.1,0.3
		C27.9,45.6,27.9,45.6,26.6,45.5z M29.8,39.7c0,0-0.1,0-0.1,0c-0.3,1-0.6,2-1,3.1c0.8,0,1.4,0,2.1,0C30.4,41.7,30.1,40.7,29.8,39.7z
		"/>
	<path fill="#054D80" d="M11.9,55.6c-0.1,0-0.2,0-0.2,0c-1.2,0.1-1.2,0.1-1.5-1.1c-0.1-0.5-0.3-0.7-0.8-0.6c-0.6,0-1.1,0-1.7,0
		c-0.2,0-0.4,0.2-0.5,0.3c-0.2,0.4-0.3,0.9-0.4,1.3c-0.4,0-0.8,0-1.2,0c0-0.2,0-0.3,0.1-0.4c0.7-2.1,1.4-4.2,2.1-6.3
		c0.1-0.4,0.3-0.5,0.7-0.5c1,0,1,0,1.4,1c0.6,1.9,1.3,3.8,1.9,5.7C11.8,55.2,11.9,55.4,11.9,55.6z M9.8,52.9c-0.3-1.1-0.7-2.1-1-3.1
		c0,0-0.1,0-0.1,0c-0.3,1-0.7,2-1,3.1C8.4,52.9,9,52.9,9.8,52.9z"/>
	<path fill="#054D80" d="M31.8,48.4c1.3,0,2.6,0,3.9,0c0,0.3,0,0.6,0,1c-0.9,0-1.7,0-2.6,0c0,0.7,0,1.3,0,1.9c0.7,0,1.5,0,2.2,0
		c0,0.2,0,0.4,0.1,0.5c0.1,0.4-0.1,0.6-0.5,0.6c-0.6,0-1.1,0-1.8,0c0,0.7,0,1.4,0,2.2c0.6,0,1.2,0,1.8,0c1,0,1,0,0.8,1
		c-1.3,0-2.6,0-3.9,0C31.8,53.2,31.8,50.8,31.8,48.4z"/>
	<path fill="#054D80" d="M38.8,38.6c-0.1,0.3-0.2,0.6-0.3,0.9c-0.3-0.1-0.5-0.1-0.7-0.2c-1.3-0.2-2.1,0.2-2.4,1.5
		c-0.1,0.6-0.2,1.3,0,2c0.2,1.4,1.3,1.9,2.8,1.6c0.2,0,0.3-0.1,0.5-0.2c0.1,0.3,0.2,0.6,0.3,0.9c-2.3,1.3-4.8,0-5-2.6
		c0-0.7,0-1.5,0.2-2.2C34.6,38.4,36.8,37.6,38.8,38.6z"/>
	<path fill="#054D80" d="M3.7,38.3c0,0.4,0,0.7,0,1c-0.8,0-1.6,0-2.4,0c0,0.6,0,1.2,0,1.8c0,0.1,0.3,0.3,0.4,0.3c0.6,0,1.1,0,1.7,0
		c0,0.4,0,0.7,0,1c-0.7,0-1.4,0-2.2,0c0,1.1,0,2,0,3.1c-0.5,0-0.8,0-1.3,0c0-2.4,0-4.8,0-7.2C1.2,38.3,2.4,38.3,3.7,38.3z"/>
	<path fill="#054D80" d="M14.9,55.6c-0.4,0-0.8,0-1.2,0c0-2,0-4.1,0-6.1c-0.7,0-1.3,0-1.9,0c0-0.4,0-0.7,0-1.1c1.7,0,3.3,0,5,0
		c0,0.3,0,0.7,0,1.1c-0.5,0-0.9,0-1.4,0c-0.4,0-0.5,0.1-0.5,0.5c0,1.7,0,3.4,0,5.1C14.9,55.2,14.9,55.4,14.9,55.6z"/>
	<path fill="#054D80" d="M39.9,45.5c0-0.3,0-0.6,0-0.9c0.1,0,0.1-0.1,0.2-0.1c0.8-0.1,1-0.3,1-1.1c0-1.5,0-3,0-4.4
		c0-0.2,0-0.5,0-0.7c0.4,0,0.8,0,1.2,0c0,0.1,0.1,0.3,0.1,0.4c0,1.7,0,3.4,0,5.1C42.3,45.4,41.5,46,39.9,45.5z"/>
	<path fill="#054D80" d="M19,25.1c-4,0-7.3-3.2-7.3-7.3c0-4,3.2-7.3,7.2-7.3c4,0,7.3,3.2,7.3,7.3C26.2,21.8,23,25.1,19,25.1z
		 M24.8,17.9c0-3.2-2.6-5.9-5.9-5.9c-3.2,0-5.9,2.7-5.9,5.9c0,3.2,2.6,5.9,5.9,5.9C22.2,23.8,24.8,21.1,24.8,17.9z"/>
</g>
</svg>
