<?xml version="1.0" encoding="UTF-8" standalone="no"?>
<svg
   xmlns:dc="http://purl.org/dc/elements/1.1/"
   xmlns:cc="http://creativecommons.org/ns#"
   xmlns:rdf="http://www.w3.org/1999/02/22-rdf-syntax-ns#"
   xmlns:svg="http://www.w3.org/2000/svg"
   xmlns="http://www.w3.org/2000/svg"
   version="1.1"
   id="svg3384"
   viewBox="0 0 25.098238 34.00033"
   height="34.000332"
   width="25.098238">
  <defs
     id="defs3386" />
  <metadata
     id="metadata3389">
    <rdf:RDF>
      <cc:Work
         rdf:about="">
        <dc:format>image/svg+xml</dc:format>
        <dc:type
           rdf:resource="http://purl.org/dc/dcmitype/StillImage" />
        <dc:title></dc:title>
      </cc:Work>
    </rdf:RDF>
  </metadata>
  <g
     transform="translate(-179.29624,-379.8639)"
     id="layer1">
    <path
       id="path3373"
       style="fill:#ffffff;fill-opacity:1;fill-rule:evenodd;stroke:none"
       d="m 184.52938,403.10083 c 0.35733,-0.11466 0.57513,-0.3698 0.86062,-0.5566 -0.0651,-0.15539 -0.0724,-0.36678 -0.15248,-0.50614 -0.21044,0.3799 -0.58612,0.5955 -0.70814,1.06274 z m 8.75505,0.1013 c -0.38156,0.2897 -0.82487,0.52514 -1.01239,0.91062 1.05669,-0.83236 2.32879,-1.7197 3.23923,-2.52943 -0.83301,0.47443 -1.51769,1.0799 -2.22684,1.61881 z m -1.97413,0.101 c 0.63523,0.34522 0.98413,-0.32248 1.4177,-0.65778 0.77304,-0.59871 1.67321,-1.18423 2.27631,-1.82183 -1.33006,0.72744 -2.51868,1.59679 -3.69401,2.47961 z m -0.85996,-1.92282 c -2.03523,1.19366 -3.61557,2.84567 -5.41518,4.25078 2.16805,-1.14907 4.19693,-2.43941 6.07296,-3.84565 1.6643,-1.24806 3.38768,-2.5074 4.95976,-3.74602 0.21257,-0.16643 0.50643,-0.28477 0.60725,-0.55595 -0.0956,0.0113 -0.11157,-0.0574 -0.20265,-0.0503 -1.8698,1.42138 -3.96803,2.742 -6.02214,3.94713 z m -0.25313,-1.67018 c 1.21356,-0.69228 2.19905,-1.614 3.39106,-2.32778 0.007,-0.0603 0.09,-0.11513 0,-0.15201 -1.14118,0.81651 -2.32779,1.58604 -3.39106,2.47979 z m -1.97365,-2.73291 c 0.0107,-0.0635 0.0793,-0.10284 -0.051,-0.10136 -0.8355,0.49723 -1.73632,0.92944 -2.27695,1.72088 0.83063,-0.48446 1.51128,-1.12063 2.32796,-1.61952 z m 7.13571,-0.10136 c 0.69631,-0.0956 1.34329,-0.2422 1.51816,-0.85973 -0.73515,-0.13568 -1.00295,0.60927 -1.51816,0.85973 z m 1.87217,-1.41669 c 0.11781,0.0345 0.1355,0.16816 0.25348,0.20212 0.0773,-0.59716 0.65168,-0.69798 0.91056,-1.11303 -0.43072,0.26073 -0.78889,0.59431 -1.16404,0.91091 z m -0.75896,-0.96174 c -1.65604,0.88989 -3.30823,1.82604 -4.8584,2.83421 -2.07549,1.34889 -4.33867,2.53014 -5.61712,4.65592 3.33898,-2.16532 6.09481,-5.36886 10.32339,-6.7314 0.64918,-0.54871 1.59625,-1.06862 2.02466,-1.66964 -0.57466,0.35935 -1.2553,0.57946 -1.87253,0.91091 z m -7.48984,0.45531 c -0.81864,0.56248 -1.63597,1.16202 -2.17595,1.92312 2.34529,-1.7533 5.39701,-2.80144 7.38847,-4.90857 0.011,-0.0634 0.0786,-0.10367 -0.0505,-0.10148 -1.74035,0.98211 -3.55244,1.98143 -5.16205,3.08693 z m 2.07483,-3.59306 c -1.46098,1.13714 -3.3195,1.87604 -4.45308,3.34023 1.69695,-0.88384 3.26767,-1.89391 4.95922,-2.78345 0.0328,-0.19927 -0.28983,-0.44183 -0.50614,-0.55678 z m 3.64383,1.06309 c 0.77963,-0.36778 1.5298,-0.76466 2.07483,-1.36669 -1.26789,-0.12089 -1.52951,0.76413 -2.07483,1.36669 z m -8.2491,0.10083 c 0.81734,-0.56065 1.42109,-1.07201 2.27749,-1.61917 0.28341,-0.18128 1.35678,-0.62329 0.91056,-0.91091 -1.93037,1.47458 -4.22668,2.87916 -6.17344,4.30161 -0.25668,0.18781 -0.60779,0.30763 -0.75944,0.60725 1.15585,-0.69477 2.63869,-1.61869 3.74483,-2.37878 z m 1.2654,-5.11105 c 1.7096,0.98953 3.24208,2.15648 4.5038,3.59252 1.45688,-1.17437 3.17017,-2.09252 5.41517,-2.47913 0.49046,-2.09063 0.99137,-4.17033 1.46788,-6.27544 -2.3418,0.32301 -4.25904,1.07153 -5.76949,2.22648 -1.19319,-1.47138 -2.7208,-2.60941 -4.70662,-3.28952 -0.26055,2.11823 -0.61836,4.13886 -0.91074,6.22509 z m 16.64967,8.24874 c 0.0256,0.15135 0.0456,0.25639 0,0.40501 -0.32551,0.64948 -0.99541,0.41808 -1.61917,0.65791 -0.50815,-0.22469 -0.071,-0.78705 0.10118,-1.06292 -0.54449,0.10166 -0.84477,0.99375 -1.41639,0.91162 -0.55275,-0.08 -0.33644,-0.82778 -0.25397,-1.26539 -0.45768,0.16477 -1.12686,1.11155 -1.87253,0.91091 -1.05312,-0.28448 0.48678,-1.15448 0.75944,-1.4174 0.42687,-0.4122 0.67643,-0.7557 0.96127,-1.16339 -1.25851,0.54622 -2.14769,1.46164 -3.13793,2.27684 -0.18847,0.10385 -0.29636,-0.23716 -0.30295,0 0.0663,0.58956 -0.35816,0.68824 -0.50631,1.06274 0.9542,0.4812 0.22522,1.04991 -0.35395,1.46799 -0.39605,0.28531 -0.72963,0.48458 -1.01221,0.70832 -0.75155,0.59615 -1.48593,1.04184 -1.82236,1.46787 1.22063,-0.58439 2.093,-1.51787 3.54235,-1.87301 0.12962,0.14067 0.3679,0.17267 0.40549,0.40514 -0.29659,0.33221 0.10278,0.4135 0.0499,0.75873 -0.0932,0.61651 -1.27449,0.74851 -1.46687,1.21474 0.43227,-0.32925 1.44502,-0.42853 1.46687,0.25331 0.0195,0.59366 -1.25038,1.37851 -1.77065,1.82182 -0.75991,0.64716 -1.52309,1.13429 -1.87318,1.62006 1.30577,-0.71942 2.28117,-1.76797 3.79619,-2.27796 0.62358,0.54562 -0.43862,0.94458 -0.86026,1.21439 -1.12907,0.72405 -2.59493,1.5747 -3.13776,2.37861 0.23431,-0.27807 0.69182,-0.30954 1.06293,-0.55679 0.57548,-0.38346 1.79207,-2.03445 2.78273,-1.7707 0.5075,0.13449 0.42063,1.09136 0.051,1.41705 0.15943,0.19476 0.42319,0.28549 0.45531,0.60642 -0.15112,0.3109 -0.40852,0.50311 -0.2023,0.91109 -0.25146,0.45751 -0.86988,0.81633 -0.96174,1.26522 0.21121,-0.30817 1.00277,-0.3834 1.01203,0.15219 -0.45679,0.67322 -1.41752,1.11172 -1.66952,1.82182 0.36862,-0.24285 2.05328,-1.70639 2.17584,-0.75944 0.0776,0.5955 -0.96833,0.95806 -0.96174,1.46853 0.32853,-0.32129 1.03697,-0.53404 1.01256,0.0505 -0.0158,0.36624 -0.6522,0.46974 -0.70807,0.91056 1.13274,-0.0104 0.16809,0.71752 0,1.31557 -0.0304,0.10652 0.0394,0.28056 0,0.35377 -0.14898,0.27824 -0.51706,0.34641 -0.55667,0.50631 -0.006,0.024 -0.0256,0.0339 -0.0491,0.0349 l -0.008,0 c -0.0326,-0.001 -0.0716,-0.0173 -0.0953,-0.0349 -0.20866,-0.17035 -0.35947,-0.52282 -0.10094,-0.75843 -0.65007,0.0986 -0.73385,-0.4765 -0.50614,-0.86062 -0.15129,0.0359 -0.52697,0.0326 -0.60713,-0.15165 -0.23835,-0.63201 0.4898,-0.99119 0.50613,-1.36604 -0.75255,0.90373 -1.73917,0.12926 -0.96138,-0.81027 -0.31476,0.1776 -0.67768,0.0681 -0.75926,-0.25259 0.16423,-0.46119 0.73515,-0.78301 0.80937,-1.1641 -0.24137,0.39587 -1.6311,0.83723 -1.51852,0 0.0478,-0.35211 1.05834,-0.76009 1.46841,-1.06339 0.59514,-0.43946 1.13393,-0.80825 1.31551,-1.11411 -0.68284,0.19613 -1.94319,1.60308 -2.98575,1.46859 -0.10669,-0.0137 -0.16138,-0.19731 -0.45524,-0.30401 -0.17725,-0.0634 -0.35971,0.0131 -0.45585,-0.0505 -0.398,-0.26138 -0.28762,-0.71384 -0.10147,-1.16339 -1.26872,-0.0838 -0.15836,-1.16018 0.30401,-1.56953 0.8323,-0.7367 1.56276,-1.29164 2.32778,-1.92282 0.40983,-0.3378 0.80029,-0.70844 1.01239,-1.01245 -1.09035,0.58944 -2.35759,1.75585 -3.492,2.58132 -0.69026,0.50204 -1.91493,1.32799 -1.72052,-0.20265 -0.84138,-0.39843 -1.76649,0.18175 -2.32832,0.65843 0.18734,0.14103 0.132,0.3457 0.10154,0.50596 -0.20236,1.06055 -2.15998,1.92045 -2.83392,2.47961 0.0244,0.17754 0.0751,0.32937 0.0503,0.55679 -0.38625,0.67625 -0.95651,1.16873 -1.61952,1.56881 -0.35817,0.89025 -1.27882,1.21831 -1.92312,1.82189 -0.0961,0.12267 0.0552,0.24588 -0.0505,0.40495 -0.34991,0.5955 -1.68311,0.50863 -1.01203,-0.35513 -0.8776,-0.13788 -0.0913,-0.89257 0.25295,-1.01091 -0.41374,0.0291 -0.54212,-0.0778 -0.60713,-0.30466 -0.26138,-0.90249 1.32519,-1.25275 1.87253,-1.56835 1.78145,-1.02842 4.01785,-2.34886 5.11152,-3.593 -1.83245,0.86697 -3.13383,2.26449 -4.95969,3.13686 -0.14833,0.0135 -0.15605,-0.11347 -0.30402,-0.10046 -0.27616,0.38779 -1.03513,0.72678 -1.06256,0 -0.033,-0.87861 1.98464,-1.75034 2.12548,-2.27814 -0.43844,0.37485 -1.32768,0.39605 -1.41705,-0.30313 1.19587,-1.51062 3.24125,-2.4704 4.85858,-3.49205 0.43779,-0.27617 0.94292,-0.49504 1.21457,-0.9111 -0.84227,0.5075 -1.59952,1.09997 -2.68209,1.36741 -0.24897,0.34035 -2.75298,2.40201 -2.48062,0.4043 0.0781,-0.56456 0.75184,-1.33035 1.21523,-1.77171 0.55019,-0.52394 1.13862,-0.97403 1.66981,-1.36622 1.23144,-0.90806 2.28859,-1.89503 3.34005,-2.73256 2.13641,-1.70253 4.08079,-2.92731 6.17445,-4.40279 0.28246,-0.19927 0.68694,-0.29552 0.80979,-0.6069 -4.23214,2.14478 -7.77295,4.98007 -11.58879,7.54013 -0.82108,-0.6832 0.0559,-1.92971 0.65707,-2.27731 -0.42075,-0.47478 0.1944,-0.99285 0.25301,-1.26504 -0.16495,0.0879 -0.4831,0.23597 -0.65796,0.15147 -0.5122,-0.3755 0.11596,-0.91614 0.30413,-1.21469 -0.30497,-0.97895 0.72429,-1.45659 1.21409,-1.97365 -0.44373,0.17855 -0.84393,0.59229 -1.36592,1.06256 -0.47681,0.42954 -1.45541,1.63467 -1.72082,0.65826 -0.71972,0.19476 -1.50624,1.21339 -2.58079,1.0121 -1.25121,-0.23449 0.009,-1.11072 0.4553,-1.41705 1.15282,-0.79073 2.39951,-1.53622 3.2387,-2.27678 -1.87028,1.18275 -3.6721,2.43395 -5.61713,3.542 -0.0914,-0.0771 -0.21055,-0.12707 -0.25301,-0.25301 -0.0142,-0.0361 -0.0204,-0.0638 -0.0207,-0.091 l 0,-0.003 0,-0.003 c 4.8e-4,-0.0309 0.008,-0.0621 0.0207,-0.10551 0.13301,-0.32284 0.44165,-0.41404 0.70826,-0.60761 0.20319,-0.14678 0.65143,-0.38008 0.75932,-0.55678 0.088,-0.14459 -0.0187,-0.40633 0.10094,-0.55661 0.10558,-0.13164 0.65577,-0.38109 0.9618,-0.55679 2.22661,-1.2762 4.51805,-2.69978 6.67987,-3.89683 -0.61771,-0.39403 -1.2787,-0.74579 -1.92247,-1.11339 0.36927,-2.73428 0.86513,-5.3504 1.16404,-8.15516 0.0125,10e-4 0.0226,0.002 0.0504,0.007 2.50182,0.4841 4.16142,1.81072 5.76949,3.1884 1.80852,-1.10953 4.15869,-1.94788 6.88204,-1.97348 -0.63017,2.82715 -1.32804,5.58803 -2.02418,8.35011 -0.42093,0.0607 -0.91863,0.18929 -1.36622,0.30359 -0.45293,0.11549 -1.01322,0.15302 -1.16439,0.45549 0.0163,0.0683 0.0726,0.0968 0.0512,0.2023 0.76365,-0.14625 1.86137,0.16109 1.51822,0.96156 0.49314,-0.31037 1.46788,-0.22011 1.4167,0.35448 -0.0199,0.22386 -0.61688,0.5556 -0.91092,0.75897 -1.04154,0.72037 -2.32813,1.45457 -3.08722,2.07513 1.16927,-0.55863 2.75026,-1.44181 4.25126,-1.97365 0.43055,-0.15338 1.37062,-0.54218 1.41723,0.0506 0.0463,0.59129 -0.90438,0.68505 -1.16422,1.11322 0.54194,-0.56937 3.07511,-1.2923 2.22678,0.25301 0.0796,0.22302 0.24386,-0.27724 0.55661,-0.15184 0.47733,0.42485 -0.24102,1.18429 -0.20212,1.61953 0.30882,-0.50851 1.96237,-1.50089 1.77117,-0.051 0.27569,-0.13751 0.54479,0.0244 0.60708,0.25313" />
  </g>
</svg>
